<svg width="230" height="39" viewBox="0 0 230 39" fill="none" xmlns="http://www.w3.org/2000/svg">
<g clip-path="url(#clip0)">
<path fill-rule="evenodd" clip-rule="evenodd" d="M8.09725 0C5.91932 1.99069 0 7.01411 0 12.4666C0 16.9238 3.62923 20.5432 8.09725 20.5432C12.5643 20.5432 16.1935 16.9238 16.1935 12.4666C16.1935 7.01411 10.2742 1.99069 8.09725 0ZM8.09725 3.77024C6.5767 5.16061 2.44322 8.66815 2.44322 12.4754C2.44322 15.5879 4.97714 18.1156 8.09725 18.1156C11.2164 18.1156 13.7503 15.5879 13.7503 12.4754C13.7503 8.66815 9.6178 5.16061 8.09725 3.77024Z" fill="#0033A0" fill-opacity="0.9"/>
<path d="M8.07372 11.2216C7.19007 11.5379 5.23939 12.3522 4.0368 11.4698C4.42304 14.2534 6.82627 13.6424 8.11956 13.2347C8.86765 13.009 10.9549 12.1041 12.1565 12.9856C11.7712 10.203 9.36702 10.7468 8.07372 11.2216Z" fill="#FF6900" stroke="#FF6900" stroke-width="0.211975"/>
<path d="M29.5829 18.0787V4.52334H27.4616V10.2901H22.4698V4.52334H20.3484V18.0787H22.4698V12.0307H27.4616V18.0787H29.5829ZM40.5838 13.0232C40.5838 10.0284 39.0076 7.78083 36.1362 7.78083C33.2648 7.78083 31.6877 10.0284 31.6877 13.0232C31.6877 16.0189 33.2648 18.2879 36.1362 18.2879C39.0076 18.2879 40.5838 16.0189 40.5838 13.0232ZM38.5199 13.0047C38.5199 15.1763 37.7309 16.6183 36.1362 16.6183C34.5406 16.6183 33.7525 15.1763 33.7525 13.0047C33.7525 10.833 34.5406 9.40957 36.1362 9.40957C37.7309 9.40957 38.5199 10.833 38.5199 13.0047ZM50.5722 15.3826C50.5722 13.8103 49.2964 13.0981 48.3016 12.8733V12.8364C49.2769 12.6116 50.2718 11.732 50.2718 10.5149C50.2718 8.8112 48.7512 7.78083 46.0866 7.78083C44.8294 7.78083 43.5342 8.04353 42.5959 8.49304V17.5728C43.5342 18.0407 44.8479 18.2879 46.1432 18.2879C49.0516 18.2879 50.5722 17.311 50.5722 15.3826ZM48.3016 10.6647C48.3016 11.2261 48.0763 11.7126 47.7193 11.9753C47.3438 12.2555 46.9498 12.3304 46.1237 12.3304H44.5475V9.35411C44.885 9.20428 45.5238 9.07292 46.0866 9.07292C47.5691 9.07292 48.3016 9.69076 48.3016 10.6647ZM48.5454 15.2892C48.5454 16.412 47.7759 16.9929 46.1432 16.9929C45.5794 16.9929 44.923 16.88 44.5475 16.7117V13.5476H46.1617C46.9878 13.5476 47.3624 13.641 47.7574 13.8658C48.2636 14.1469 48.5454 14.6529 48.5454 15.2892ZM61.0668 13.0232C61.0668 10.0284 59.4907 7.78083 56.6193 7.78083C53.7469 7.78083 52.1708 10.0284 52.1708 13.0232C52.1708 16.0189 53.7469 18.2879 56.6193 18.2879C59.4907 18.2879 61.0668 16.0189 61.0668 13.0232ZM59.003 13.0047C59.003 15.1763 58.2139 16.6183 56.6193 16.6183C55.0236 16.6183 54.2355 15.1763 54.2355 13.0047C54.2355 10.833 55.0236 9.40957 56.6193 9.40957C58.2139 9.40957 59.003 10.833 59.003 13.0047ZM69.7229 17.5922L69.047 16.0754C68.6335 16.375 68.0141 16.5618 67.3948 16.5618C66.081 16.5618 64.8053 15.476 64.8053 13.0047C64.8053 10.5333 66.044 9.466 67.3948 9.466C68.0141 9.466 68.6335 9.65378 69.047 9.95346L69.7229 8.47358C69.1036 8.06201 68.2394 7.78083 67.1324 7.78083C64.8804 7.78083 62.6849 9.3726 62.6849 13.0232C62.6849 16.6747 64.8804 18.2879 67.1324 18.2879C68.2394 18.2879 69.0841 18.0223 69.7229 17.5922ZM80.0673 18.0787V7.9871H78.0026L73.9491 14.3902C73.6106 14.9146 73.3297 15.5694 73.3297 15.5694H73.2917C73.2917 15.5694 73.3297 14.8397 73.3297 14.2219V7.9871H71.5088V18.0787H73.4984L77.6456 11.5073C77.984 10.9644 78.2464 10.3271 78.2464 10.3271H78.2844C78.2844 10.3271 78.2464 11.0393 78.2464 11.6571V18.0787H80.0673ZM90.9931 13.0047C90.9931 10.1023 89.5671 7.85574 86.6957 7.85574C85.8511 7.85574 85.1752 8.04353 84.5939 8.30525C85.2688 6.26495 86.883 5.27252 89.9992 4.87944V3.17578C84.0867 3.84907 82.1916 6.73294 82.1916 11.9558C82.1916 15.7572 83.6546 18.2879 86.6392 18.2879C89.4355 18.2879 90.9931 16.0189 90.9931 13.0047ZM88.9663 13.0047C88.9663 15.0644 88.1968 16.6183 86.6772 16.6183C85.0435 16.6183 84.1618 14.8582 84.1618 12.0502C84.1618 11.2076 84.2184 10.4584 84.312 9.78416C84.9313 9.50395 85.6443 9.31617 86.3768 9.31617C88.1031 9.31617 88.9663 10.87 88.9663 13.0047ZM101.544 18.0787V7.9871H99.4804L95.426 14.3902C95.0885 14.9146 94.8066 15.5694 94.8066 15.5694H94.7696C94.7696 15.5694 94.8066 14.8397 94.8066 14.2219V7.9871H92.9867V18.0787H94.9754L99.1235 11.5073C99.4609 10.9644 99.7243 10.3271 99.7243 10.3271H99.7613C99.7613 10.3271 99.7243 11.0393 99.7243 11.6571V18.0787H101.544ZM112.302 12.9482C112.302 9.74719 110.538 7.78083 107.385 7.78083C105.996 7.78083 104.626 8.11845 103.912 8.49304V22.0883H105.959V17.9473C106.296 18.0602 106.991 18.1945 107.61 18.1945C110.67 18.1945 112.302 16.0374 112.302 12.9482ZM110.256 12.9482C110.256 15.0644 109.281 16.5998 107.423 16.5998C106.878 16.5998 106.221 16.4869 105.959 16.375V9.65378C106.24 9.52243 106.859 9.39108 107.423 9.39108C109.262 9.39108 110.256 10.7581 110.256 12.9482ZM120.977 17.5922L120.301 16.0754C119.887 16.375 119.268 16.5618 118.649 16.5618C117.335 16.5618 116.059 15.476 116.059 13.0047C116.059 10.5333 117.298 9.466 118.649 9.466C119.268 9.466 119.887 9.65378 120.301 9.95346L120.977 8.47358C120.357 8.06201 119.493 7.78083 118.386 7.78083C116.134 7.78083 113.938 9.3726 113.938 13.0232C113.938 16.6747 116.134 18.2879 118.386 18.2879C119.493 18.2879 120.338 18.0223 120.977 17.5922ZM131.171 18.0787L129.35 14.7463C128.787 13.6974 128.036 12.9298 126.948 12.5367L131.039 7.9871H128.637L124.846 12.5182H124.808V7.9871H122.781V18.0787H124.808V13.2664C125.972 13.2664 126.798 14.0535 127.285 14.9895L128.9 18.0787H131.171ZM140.013 13.0232C140.013 9.50395 137.799 7.78083 134.853 7.78083C133.783 7.78083 132.638 8.04353 131.962 8.49304L132.563 9.82211C133.051 9.50395 133.952 9.26071 134.721 9.26071C136.317 9.26071 137.686 10.1403 137.931 12.2185H133.107V13.641H137.95C137.761 15.8506 136.373 16.7866 134.721 16.7866C133.952 16.7866 133.051 16.5434 132.563 16.2252L131.962 17.5728C132.638 18.0223 133.783 18.2879 134.853 18.2879C137.799 18.2879 140.013 16.5434 140.013 13.0232ZM149.965 18.0787V7.9871H147.9V12.2555H144.052V7.9871H142.007V18.0787H144.052V13.6605H147.9V18.0787H149.965ZM160.703 12.2185C160.703 9.50395 159.146 7.78083 156.518 7.78083C153.684 7.78083 151.957 9.934 151.957 13.0232C151.957 16.2437 153.74 18.2879 156.931 18.2879C158.32 18.2879 159.671 17.9853 160.459 17.5728L159.859 16.0374C159.164 16.412 158.076 16.6552 157.062 16.6552C155.355 16.6552 154.171 15.7387 153.966 13.9222L160.685 12.9862C160.703 12.7235 160.703 12.4618 160.703 12.2185ZM158.732 11.9004L153.834 12.5746C153.871 10.4769 154.904 9.27919 156.48 9.27919C157.832 9.27919 158.714 10.1403 158.732 11.9004ZM171.086 12.9482C171.086 9.74719 169.321 7.78083 166.168 7.78083C164.779 7.78083 163.409 8.11845 162.696 8.49304V22.0883H164.742V17.9473C165.08 18.0602 165.774 18.1945 166.393 18.1945C169.453 18.1945 171.086 16.0374 171.086 12.9482ZM169.04 12.9482C169.04 15.0644 168.064 16.5998 166.205 16.5998C165.661 16.5998 165.005 16.4869 164.742 16.375V9.65378C165.023 9.52243 165.642 9.39108 166.205 9.39108C168.045 9.39108 169.04 10.7581 169.04 12.9482ZM178.971 9.59735V7.9871H173.134V18.0787H175.199V9.59735H178.971ZM188.79 13.0232C188.79 10.0284 187.214 7.78083 184.343 7.78083C181.471 7.78083 179.894 10.0284 179.894 13.0232C179.894 16.0189 181.471 18.2879 184.343 18.2879C187.214 18.2879 188.79 16.0189 188.79 13.0232ZM186.726 13.0047C186.726 15.1763 185.938 16.6183 184.343 16.6183C182.747 16.6183 181.959 15.1763 181.959 13.0047C181.959 10.833 182.747 9.40957 184.343 9.40957C185.938 9.40957 186.726 10.833 186.726 13.0047ZM197.446 17.5922L196.77 16.0754C196.358 16.375 195.738 16.5618 195.119 16.5618C193.805 16.5618 192.529 15.476 192.529 13.0047C192.529 10.5333 193.767 9.466 195.119 9.466C195.738 9.466 196.358 9.65378 196.77 9.95346L197.446 8.47358C196.827 8.06201 195.964 7.78083 194.856 7.78083C192.604 7.78083 190.408 9.3726 190.408 13.0232C190.408 16.6747 192.604 18.2879 194.856 18.2879C195.964 18.2879 196.808 18.0223 197.446 17.5922ZM207.791 13.0047C207.791 10.1023 206.365 7.85574 203.492 7.85574C202.649 7.85574 201.973 8.04353 201.39 8.30525C202.066 6.26495 203.681 5.27252 206.796 4.87944V3.17578C200.884 3.84907 198.988 6.73294 198.988 11.9558C198.988 15.7572 200.452 18.2879 203.437 18.2879C206.233 18.2879 207.791 16.0189 207.791 13.0047ZM205.764 13.0047C205.764 15.0644 204.994 16.6183 203.474 16.6183C201.841 16.6183 200.959 14.8582 200.959 12.0502C200.959 11.2076 201.015 10.4584 201.11 9.78416C201.729 9.50395 202.442 9.31617 203.173 9.31617C204.901 9.31617 205.764 10.87 205.764 13.0047ZM220.932 18.0787V7.9871H218.886V18.0787H220.932ZM217.422 15.008C217.422 12.9862 215.996 11.7126 213.255 11.7126C212.786 11.7126 212.167 11.807 211.81 11.9004V7.9871H209.783V17.5728C210.666 18.0223 211.98 18.2879 213.18 18.2879C215.902 18.2879 217.422 17.0863 217.422 15.008ZM215.414 15.008C215.414 16.2816 214.644 16.9364 213.18 16.9364C212.674 16.9364 212.11 16.8051 211.81 16.6747V13.2294C212.11 13.136 212.674 13.0611 213.087 13.0611C214.682 13.0611 215.414 13.7908 215.414 15.008ZM230 9.61584V7.9871H222.586V9.61584H225.271V18.0787H227.335V9.61584H230Z" fill="#0033A0"/>
<path d="M98.5301 34.998H96.9363V31.2422H94.8328V34.998H93.2391V26.4316H94.8328V29.8359H96.9363V26.4316H98.5301V34.998Z" fill="#FF7819"/>
<path d="M103.353 34.998L103.043 34.1074H103.007C102.777 34.4902 102.539 34.7539 102.293 34.8984C102.046 35.043 101.736 35.1152 101.361 35.1152C100.88 35.1152 100.502 34.9355 100.224 34.5762C99.9508 34.2168 99.8141 33.7168 99.8141 33.0762C99.8141 32.3887 100.002 31.8789 100.377 31.5469C100.755 31.2109 101.32 31.0254 102.07 30.9902L102.937 30.9551V30.4863C102.937 29.877 102.673 29.5723 102.146 29.5723C101.755 29.5723 101.306 29.7246 100.798 30.0293L100.259 28.9512C100.908 28.541 101.613 28.3359 102.375 28.3359C103.066 28.3359 103.591 28.5352 103.951 28.9336C104.314 29.3281 104.496 29.8887 104.496 30.6152V34.998H103.353ZM102 33.8965C102.285 33.8965 102.511 33.7695 102.679 33.5156C102.851 33.2578 102.937 32.916 102.937 32.4902V31.9395L102.457 31.9629C102.101 31.9824 101.839 32.084 101.671 32.2676C101.507 32.4512 101.425 32.7246 101.425 33.0879C101.425 33.627 101.617 33.8965 102 33.8965Z" fill="#FF7819"/>
<path d="M110.848 28.4707V34.998H109.278V29.7305H107.514V34.998H105.955V28.4707H110.848Z" fill="#FF7819"/>
<path d="M117.212 31.7227C117.212 32.793 116.986 33.627 116.532 34.2246C116.079 34.8184 115.458 35.1152 114.669 35.1152C114.169 35.1152 113.728 34.9785 113.345 34.7051C112.962 34.4316 112.667 34.0391 112.46 33.5273C112.253 33.0117 112.15 32.4102 112.15 31.7227C112.15 30.6641 112.374 29.8379 112.823 29.2441C113.273 28.6465 113.896 28.3477 114.693 28.3477C115.462 28.3477 116.073 28.6523 116.527 29.2617C116.984 29.8672 117.212 30.6875 117.212 31.7227ZM113.743 31.7227C113.743 32.4023 113.818 32.916 113.966 33.2637C114.114 33.6113 114.353 33.7852 114.681 33.7852C115.306 33.7852 115.618 33.0977 115.618 31.7227C115.618 31.0391 115.542 30.5293 115.39 30.1934C115.241 29.8535 115.005 29.6836 114.681 29.6836C114.353 29.6836 114.114 29.8535 113.966 30.1934C113.818 30.5293 113.743 31.0391 113.743 31.7227Z" fill="#FF7819"/>
<path d="M123.236 34.998H121.672V29.7305H120.799C120.721 31.0547 120.594 32.1055 120.418 32.8828C120.246 33.6602 120.014 34.2246 119.721 34.5762C119.432 34.9277 119.047 35.1035 118.566 35.1035C118.273 35.1035 118.033 35.0605 117.846 34.9746V33.6914C117.963 33.7305 118.082 33.75 118.203 33.75C118.531 33.75 118.787 33.332 118.971 32.4961C119.154 31.6562 119.295 30.3145 119.393 28.4707H123.236V34.998Z" fill="#FF7819"/>
<path d="M126.313 28.4707V31.0137H128.077V28.4707H129.647V34.998H128.077V32.2617H126.313V34.998H124.755V28.4707H126.313Z" fill="#FF7819"/>
<path d="M132.302 34.998H130.539L132.162 32.3203C131.377 32.0078 130.984 31.4004 130.984 30.498C130.984 29.8613 131.195 29.3652 131.617 29.0098C132.043 28.6504 132.627 28.4707 133.369 28.4707H135.771V34.998H134.213V32.5371H133.65L132.302 34.998ZM132.566 30.5098C132.566 31.0957 132.89 31.3887 133.539 31.3887H134.213V29.6367H133.41C132.847 29.6367 132.566 29.9277 132.566 30.5098Z" fill="#FF7819"/>
<path d="M138.432 34.998H136.668L138.291 32.3203C137.506 32.0078 137.114 31.4004 137.114 30.498C137.114 29.8613 137.325 29.3652 137.746 29.0098C138.172 28.6504 138.756 28.4707 139.498 28.4707H141.901V34.998H140.342V32.5371H139.78L138.432 34.998ZM138.696 30.5098C138.696 31.0957 139.02 31.3887 139.668 31.3887H140.342V29.6367H139.539C138.977 29.6367 138.696 29.9277 138.696 30.5098Z" fill="#FF7819"/>
<path d="M149.297 31.5996V28.4707H150.797V31.5996L152.432 28.4707H154.049L152.297 31.5645L154.16 34.998H152.467L150.797 31.6406V34.998H149.297V31.6406L147.621 34.998H145.928L147.785 31.5645L146.045 28.4707H147.668L149.297 31.5996Z" fill="#FF7819"/>
<path d="M156.475 28.4707V31.4941C156.475 31.8691 156.429 32.4922 156.335 33.3633L158.456 28.4707H160.366V34.998H158.913V31.9277C158.913 31.4668 158.958 30.8457 159.048 30.0645L156.921 34.998H155.028V28.4707H156.475Z" fill="#FF7819"/>
<path d="M163.226 31.0137C163.582 31.0137 163.845 30.957 164.017 30.8438C164.193 30.7305 164.281 30.5352 164.281 30.2578C164.281 29.8086 163.982 29.584 163.384 29.584C163.173 29.584 162.978 29.6152 162.798 29.6777C162.619 29.7363 162.425 29.8301 162.218 29.959L161.656 28.8281C162.199 28.5078 162.802 28.3477 163.466 28.3477C164.158 28.3477 164.709 28.502 165.119 28.8105C165.529 29.1191 165.734 29.541 165.734 30.0762C165.734 30.8223 165.322 31.3105 164.498 31.541V31.5879C164.951 31.6934 165.296 31.8867 165.535 32.168C165.773 32.4492 165.892 32.8086 165.892 33.2461C165.892 33.8242 165.671 34.2812 165.23 34.6172C164.793 34.9492 164.185 35.1152 163.408 35.1152C163.048 35.1152 162.705 35.0762 162.377 34.998C162.052 34.916 161.779 34.8125 161.556 34.6875V33.3809C162.099 33.6816 162.668 33.832 163.261 33.832C163.972 33.832 164.328 33.5684 164.328 33.041C164.328 32.7598 164.242 32.5469 164.07 32.4023C163.902 32.2539 163.621 32.1797 163.226 32.1797H162.588V31.0137H163.226Z" fill="#FF7819"/>
<path d="M168.717 28.4707V31.0137H170.481V28.4707H172.051V34.998H170.481V32.2617H168.717V34.998H167.159V28.4707H168.717Z" fill="#FF7819"/>
<path d="M175.128 31.0254H175.679C176.55 31.0254 177.191 31.1836 177.601 31.5C178.015 31.8164 178.222 32.2949 178.222 32.9355C178.222 34.3105 177.359 34.998 175.632 34.998H173.57V28.4707H175.128V31.0254ZM176.616 32.9707C176.616 32.6934 176.532 32.4941 176.364 32.373C176.2 32.252 175.937 32.1914 175.573 32.1914H175.128V33.832H175.597C175.921 33.832 176.171 33.7676 176.347 33.6387C176.527 33.5059 176.616 33.2832 176.616 32.9707Z" fill="#FF7819"/>
<path d="M183.843 35.1152C183.249 35.1152 182.72 34.9766 182.255 34.6992V33.416C182.641 33.6035 182.94 33.7246 183.151 33.7793C183.362 33.8301 183.567 33.8555 183.766 33.8555C184.138 33.8555 184.434 33.7168 184.657 33.4395C184.88 33.1621 185.011 32.7695 185.05 32.2617H183.192V31.1191H185.05C185.038 30.6113 184.936 30.2285 184.745 29.9707C184.557 29.7129 184.292 29.584 183.948 29.584C183.725 29.584 183.52 29.6172 183.333 29.6836C183.149 29.75 182.946 29.8379 182.723 29.9473L182.29 28.7812C182.852 28.4922 183.421 28.3477 183.995 28.3477C185.772 28.3477 186.661 29.4531 186.661 31.6641C186.661 32.7656 186.421 33.6172 185.94 34.2188C185.46 34.8164 184.761 35.1152 183.843 35.1152Z" fill="#FF7819"/>
<path d="M189.521 28.4707V31.0137H191.285V28.4707H192.855V34.998H191.285V32.2617H189.521V34.998H187.963V28.4707H189.521Z" fill="#FF7819"/>
<path d="M196.782 35.1152C195.965 35.1152 195.321 34.8262 194.848 34.248C194.379 33.666 194.145 32.8438 194.145 31.7812C194.145 30.7031 194.358 29.8613 194.784 29.2559C195.209 28.6504 195.803 28.3477 196.565 28.3477C197.276 28.3477 197.836 28.6074 198.246 29.127C198.657 29.6426 198.862 30.3672 198.862 31.3008V32.1328H195.727C195.739 32.7148 195.858 33.1484 196.084 33.4336C196.311 33.7148 196.623 33.8555 197.022 33.8555C197.53 33.8555 198.049 33.6973 198.58 33.3809V34.6641C198.08 34.9648 197.481 35.1152 196.782 35.1152ZM196.553 29.5488C196.33 29.5488 196.147 29.668 196.002 29.9062C195.858 30.1406 195.774 30.5059 195.75 31.002H197.332C197.325 30.5254 197.252 30.1641 197.116 29.918C196.979 29.6719 196.791 29.5488 196.553 29.5488Z" fill="#FF7819"/>
<path d="M203.005 35.1152C202.724 35.1152 202.474 35.0527 202.255 34.9277C202.04 34.7988 201.839 34.5742 201.652 34.2539H201.57C201.632 34.7852 201.663 35.1055 201.663 35.2148V37.8809H200.093V28.4707H201.3L201.57 29.3203H201.64C201.964 28.6719 202.435 28.3477 203.052 28.3477C203.646 28.3477 204.111 28.6426 204.446 29.2324C204.782 29.8184 204.95 30.6484 204.95 31.7227C204.95 32.7812 204.777 33.6113 204.429 34.2129C204.081 34.8145 203.607 35.1152 203.005 35.1152ZM202.525 29.6719C202.22 29.6719 201.999 29.8145 201.863 30.0996C201.73 30.3809 201.659 30.8496 201.652 31.5059V31.7109C201.652 32.4297 201.72 32.9531 201.857 33.2812C201.993 33.6094 202.22 33.7734 202.536 33.7734C203.083 33.7734 203.357 33.082 203.357 31.6992C203.357 31.0195 203.288 30.5117 203.152 30.1758C203.019 29.8398 202.81 29.6719 202.525 29.6719Z" fill="#FF7819"/>
<path d="M209.639 28.4707V29.7305H207.805V34.998H206.246V28.4707H209.639Z" fill="#FF7819"/>
<path d="M212.171 28.4707V31.4941C212.171 31.8691 212.124 32.4922 212.03 33.3633L214.151 28.4707H216.061V34.998H214.608V31.9277C214.608 31.4668 214.653 30.8457 214.743 30.0645L212.616 34.998H210.723V28.4707H212.171Z" fill="#FF7819"/>
<path d="M220 35.1152C219.183 35.1152 218.539 34.8262 218.066 34.248C217.597 33.666 217.363 32.8438 217.363 31.7812C217.363 30.7031 217.576 29.8613 218.002 29.2559C218.427 28.6504 219.021 28.3477 219.783 28.3477C220.494 28.3477 221.054 28.6074 221.464 29.127C221.875 29.6426 222.08 30.3672 222.08 31.3008V32.1328H218.945C218.957 32.7148 219.076 33.1484 219.302 33.4336C219.529 33.7148 219.841 33.8555 220.24 33.8555C220.748 33.8555 221.267 33.6973 221.798 33.3809V34.6641C221.298 34.9648 220.699 35.1152 220 35.1152ZM219.771 29.5488C219.548 29.5488 219.365 29.668 219.22 29.9062C219.076 30.1406 218.992 30.5059 218.968 31.002H220.55C220.543 30.5254 220.47 30.1641 220.334 29.918C220.197 29.6719 220.009 29.5488 219.771 29.5488Z" fill="#FF7819"/>
<path d="M224.758 28.4707V31.4941C224.758 31.8691 224.711 32.4922 224.618 33.3633L226.739 28.4707H228.649V34.998H227.196V31.9277C227.196 31.4668 227.241 30.8457 227.33 30.0645L225.204 34.998H223.311V28.4707H224.758ZM228.116 25.8281C228.038 26.4844 227.823 26.9648 227.471 27.2695C227.123 27.5742 226.61 27.7266 225.93 27.7266C225.266 27.7266 224.768 27.5781 224.436 27.2812C224.104 26.9805 223.907 26.4961 223.844 25.8281H225.139C225.182 26.2188 225.264 26.4824 225.385 26.6191C225.51 26.7559 225.704 26.8242 225.965 26.8242C226.223 26.8242 226.414 26.7461 226.539 26.5898C226.668 26.4336 226.754 26.1797 226.797 25.8281H228.116Z" fill="#FF7819"/>
</g>
<defs>
<clipPath id="clip0">
<rect width="230" height="39" fill="white"/>
</clipPath>
</defs>
</svg>
